<?xml version="1.0" standalone="no"?>
<!DOCTYPE svg PUBLIC "-//W3C//DTD SVG 20010904//EN"
 "http://www.w3.org/TR/2001/REC-SVG-20010904/DTD/svg10.dtd">
<svg version="1.0" xmlns="http://www.w3.org/2000/svg"
 width="512.000000pt" height="512.000000pt" viewBox="0 0 512.000000 512.000000"
 preserveAspectRatio="xMidYMid meet">

<g transform="translate(0.000000,512.000000) scale(0.100000,-0.100000)"
fill="#000000" stroke="none">
<path d="M213 5102 c-63 -22 -115 -61 -154 -115 -62 -86 -60 -17 -57 -1438 l3
-1294 28 -57 c32 -65 89 -121 156 -152 42 -19 66 -21 282 -24 l237 -3 4 -23
c3 -13 1 -34 -4 -47 -5 -13 -9 -48 -9 -79 0 -30 45 -453 100 -939 56 -486 101
-888 101 -892 0 -4 7 -15 16 -23 14 -14 89 -16 673 -16 614 0 659 1 674 18 12
13 39 220 121 939 89 776 105 929 96 965 -13 50 -14 57 -12 81 2 16 35 17 532
17 l530 0 0 25 c0 24 2 25 75 25 l75 0 0 -135 0 -135 -213 0 c-172 0 -223 -3
-262 -17 -61 -20 -129 -87 -146 -142 l-12 -41 -59 0 -58 0 0 -50 0 -50 58 0
59 0 56 -457 c105 -846 128 -1007 144 -1025 15 -17 51 -18 483 -18 432 0 468
1 483 18 16 18 39 179 144 1025 l56 457 59 0 58 0 0 50 0 50 -58 0 -59 0 -12
41 c-17 55 -85 122 -146 142 -39 14 -90 17 -262 17 l-213 0 0 135 0 135 75 0
c74 0 75 0 75 -25 l0 -26 478 3 c463 3 478 4 523 24 67 31 124 87 156 152 l28
57 0 1315 0 1315 -28 57 c-32 65 -89 121 -156 152 l-46 21 -2310 2 c-2197 2
-2313 2 -2362 -15z m4807 -1532 l0 -1050 -445 0 -445 0 0 -25 c0 -24 -3 -25
-57 -25 l-58 1 28 20 c34 26 34 35 -1 77 l-28 34 -81 -66 c-81 -65 -83 -66
-143 -66 -57 0 -60 1 -60 25 l0 25 -702 0 c-537 1 -707 4 -719 13 -9 7 -19 28
-23 48 -11 60 -59 125 -118 158 -29 17 -63 31 -74 31 -13 0 -36 18 -59 45 -60
73 -154 111 -240 96 -33 -6 -47 -3 -79 18 -35 23 -50 26 -125 26 -74 0 -91 -3
-126 -25 -22 -14 -44 -23 -49 -22 -6 2 -38 3 -72 3 -79 0 -148 -33 -199 -96
-23 -27 -46 -45 -59 -45 -24 0 -126 -56 -126 -69 0 -5 16 -22 36 -39 l36 -31
31 20 c18 10 49 19 70 19 39 0 53 10 90 70 40 63 101 80 199 55 21 -6 34 -1
58 19 68 57 152 57 220 0 24 -20 37 -25 58 -19 98 25 159 8 199 -55 37 -60 51
-70 91 -70 74 0 142 -68 142 -142 0 -40 10 -54 70 -91 63 -40 80 -101 55 -200
-6 -21 -3 -33 13 -50 18 -19 52 -86 52 -102 0 -3 -15 2 -32 12 -24 13 -56 18
-113 18 -87 0 -118 -11 -173 -63 l-31 -29 -23 25 c-42 45 -115 72 -198 72 -82
0 -132 -17 -188 -65 l-33 -28 -27 26 c-47 45 -109 67 -192 67 -82 0 -132 -17
-187 -64 l-33 -28 -32 28 c-78 65 -174 81 -269 45 l-51 -20 7 27 c3 15 20 44
37 65 24 30 29 44 23 65 -23 91 -14 143 34 186 23 21 28 65 9 84 -9 9 -114 12
-410 12 l-398 0 0 1050 0 1050 2460 0 2460 0 0 -1050z m-3559 -1572 c25 -14
46 -37 59 -63 19 -38 20 -62 20 -331 l0 -290 -89 -17 c-49 -9 -115 -28 -147
-42 -31 -14 -58 -24 -60 -23 -7 8 -45 654 -39 676 10 39 41 77 77 95 48 24
132 22 179 -5z m858 -5 c37 -28 64 -78 64 -121 0 -20 -44 -427 -98 -904 l-99
-868 -114 0 -113 0 5 43 c3 23 15 211 26 417 14 256 26 393 37 432 9 34 13 72
10 95 -7 42 30 649 49 800 6 49 43 99 89 119 39 18 110 12 144 -13z m1916
-313 c22 -11 48 -33 58 -50 l18 -30 -581 0 -581 0 18 30 c9 17 35 39 58 50 38
19 60 20 504 20 443 0 467 -1 506 -20z m-2454 -499 c78 -25 128 -56 149 -94
13 -24 13 -30 0 -54 -81 -144 -522 -163 -657 -27 -39 38 -41 63 -8 102 76 90
341 128 516 73z m2459 -223 c0 -13 -9 -90 -20 -172 -11 -81 -20 -152 -20 -157
0 -5 -202 -9 -470 -9 -258 0 -470 1 -470 3 0 1 -9 72 -20 157 -11 85 -20 165
-20 178 l0 22 510 0 510 0 0 -22z m-2788 -136 l88 -16 0 -353 0 -353 -110 0
c-106 0 -110 1 -114 23 -6 26 -47 666 -46 719 l0 37 47 -20 c26 -11 86 -27
135 -37z"/>
<path d="M2142 3988 c-17 -17 -17 -819 0 -836 7 -7 23 -12 37 -11 15 0 202 89
416 197 l390 197 0 35 0 35 -390 197 c-214 108 -401 197 -415 197 -15 1 -31
-4 -38 -11z m678 -418 c0 -3 -133 -71 -295 -153 l-295 -147 0 300 0 300 295
-147 c162 -82 295 -150 295 -153z"/>
</g>
</svg>
